<svg id="icono-index-academy" xmlns="http://www.w3.org/2000/svg" xmlns:xlink="http://www.w3.org/1999/xlink" width="78" height="78" viewBox="0 0 78 78">
  <defs>
    <clipPath id="clip-path">
      <rect id="Rectángulo_1030" data-name="Rectángulo 1030" width="78" height="78" fill="none"/>
    </clipPath>
  </defs>
  <g id="Grupo_2155" data-name="Grupo 2155" clip-path="url(#clip-path)">
    <path id="Trazado_3228" data-name="Trazado 3228" d="M69.713,0H8.287A8.3,8.3,0,0,0,0,8.287V69.7A8.306,8.306,0,0,0,8.287,78H69.713A8.3,8.3,0,0,0,78,69.7V8.287A8.292,8.292,0,0,0,69.713,0m6.521,69.7a6.525,6.525,0,0,1-6.521,6.53H8.287A6.525,6.525,0,0,1,1.766,69.7V8.287A6.523,6.523,0,0,1,8.287,1.766H69.713a6.523,6.523,0,0,1,6.521,6.521Zm-6.941-3.733L62.066,49.855a55.06,55.06,0,0,0,6.187-2.979,1.759,1.759,0,0,0,.64-2.4L64.873,37.5a1.754,1.754,0,0,0-2.406-.649,53.49,53.49,0,0,1-5.155,2.425L44.318,10.3A1.759,1.759,0,0,0,42.7,9.261H35.382A1.759,1.759,0,0,0,33.768,10.3l-13,28.9c-3.2-1.27-5.365-2.368-5.585-2.473a1.761,1.761,0,0,0-2.358.754L9.07,44.614a1.762,1.762,0,0,0-.105,1.356,1.788,1.788,0,0,0,.888,1.05c.573.3,2.845,1.442,6.148,2.759L8.717,65.971a1.766,1.766,0,0,0,1.613,2.492h8.793a1.775,1.775,0,0,0,1.613-1.041l6.33-14.053A50.115,50.115,0,0,0,38.8,54.915,53.918,53.918,0,0,0,51,53.435l6.263,13.977a1.754,1.754,0,0,0,1.6,1.05H67.68a1.783,1.783,0,0,0,1.489-.812,1.754,1.754,0,0,0,.124-1.68M35.382,11.027H42.7l12.965,28.9c-.525.2-1.079.4-1.661.611-1.337.458-2.8.907-4.344,1.308-.573.153-1.155.3-1.747.42L39.038,22.474,30.15,42.208c-.592-.134-1.165-.277-1.738-.439-1.508-.4-2.969-.859-4.325-1.327-.573-.2-1.136-.4-1.671-.611ZM46.151,42.637a41.185,41.185,0,0,1-7.351.706,35.473,35.473,0,0,1-6.883-.745l7.122-15.82ZM19.123,66.7H10.33l7.323-16.268c.535.2,1.088.411,1.661.611,1.337.477,2.778.955,4.3,1.394q.845.258,1.718.487ZM50.256,51.784A51.8,51.8,0,0,1,38.8,53.149a48.682,48.682,0,0,1-11-1.4c-.592-.143-1.174-.286-1.747-.439s-1.155-.315-1.718-.477c-1.508-.439-2.96-.917-4.3-1.394-.573-.2-1.136-.411-1.671-.611-.573-.22-1.127-.43-1.642-.649-3.532-1.413-5.852-2.625-6.091-2.74L14.388,38.3c.048.019,2.263,1.174,5.642,2.52.525.21,1.069.42,1.652.64.535.2,1.088.4,1.671.6,1.346.468,2.807.926,4.325,1.346.573.153,1.155.306,1.738.439.582.153,1.165.286,1.757.4a37.817,37.817,0,0,0,7.628.859,42.219,42.219,0,0,0,8.086-.831c.6-.115,1.184-.239,1.766-.372s1.165-.277,1.738-.439c1.547-.4,3-.859,4.334-1.327.573-.2,1.127-.4,1.661-.611.582-.22,1.127-.439,1.652-.649a51.382,51.382,0,0,0,5.308-2.5l4.019,6.979a55.617,55.617,0,0,1-6.024,2.883c-.516.21-1.069.439-1.642.649q-.8.315-1.661.63c-1.337.477-2.778.945-4.315,1.384-.563.162-1.136.315-1.728.468-.573.143-1.146.286-1.738.411M58.868,66.7,52.738,53.015c.582-.153,1.155-.315,1.718-.477,1.537-.449,2.979-.926,4.306-1.4.573-.2,1.127-.411,1.661-.621L67.68,66.7Z" fill="#00aca9"/>
  </g>
</svg>
