<svg id="logo_vertical_index_academy_con_fondo" data-name="logo vertical index academy con fondo" xmlns="http://www.w3.org/2000/svg" width="115.846" height="115.846" viewBox="0 0 115.846 115.846">
  <rect id="rectángulo" width="100" height="100" transform="translate(7.923 7.922)" fill="#00b6c5"/>
  <g id="logo_vertical_index_academy" data-name="logo vertical index academy" transform="matrix(0.985, -0.174, 0.174, 0.985, 0, 17.365)">
    <rect id="Rectángulo_999" data-name="Rectángulo 999" width="100" height="100" fill="#003764"/>
    <g id="Grupo_1984" data-name="Grupo 1984" transform="translate(11.168 76.961)">
      <path id="Trazado_2801" data-name="Trazado 2801" d="M15.114,74.69h2.7l4.315,10.2h-3L18.4,83.082h-3.9l-.723,1.806H10.82l4.315-10.2Zm2.457,6.224-1.125-2.88L15.3,80.914Z" transform="translate(-10.82 -74.556)" fill="#fff"/>
      <path id="Trazado_2802" data-name="Trazado 2802" d="M27.663,85.1a5.416,5.416,0,0,1-2.044-.392,4.764,4.764,0,0,1-1.652-1.094,5.465,5.465,0,0,1-1.115-1.662,5.186,5.186,0,0,1-.413-2.085v-.031a5.187,5.187,0,0,1,3.2-4.872,5.547,5.547,0,0,1,2.137-.4,6,6,0,0,1,1.414.155,5.048,5.048,0,0,1,1.166.434,4.493,4.493,0,0,1,.95.671,5.465,5.465,0,0,1,.764.857l-2.116,1.631a3.591,3.591,0,0,0-.96-.867,2.387,2.387,0,0,0-3,.454,2.427,2.427,0,0,0-.5.857,2.917,2.917,0,0,0-.186,1.043v.031a3.031,3.031,0,0,0,.186,1.063,2.787,2.787,0,0,0,.5.857,2.31,2.31,0,0,0,.764.568,2.2,2.2,0,0,0,.981.206,3.065,3.065,0,0,0,.712-.083,2.386,2.386,0,0,0,.6-.258,3.024,3.024,0,0,0,.506-.392c.155-.145.32-.32.475-.5L32.143,82.8a7.4,7.4,0,0,1-.784.908,4.844,4.844,0,0,1-.97.723,4.754,4.754,0,0,1-1.218.475,6.1,6.1,0,0,1-1.507.175Z" transform="translate(-10.446 -74.56)" fill="#fff"/>
      <path id="Trazado_2803" data-name="Trazado 2803" d="M36.584,74.69h2.7l4.315,10.2h-3l-.733-1.806h-3.9l-.723,1.806H32.29L36.6,74.69Zm2.457,6.224-1.125-2.88-1.146,2.88Z" transform="translate(-10.129 -74.556)" fill="#fff"/>
      <path id="Trazado_2804" data-name="Trazado 2804" d="M44.24,74.76h3.9a7.346,7.346,0,0,1,2.426.372,5.1,5.1,0,0,1,1.8,1.032,4.489,4.489,0,0,1,1.115,1.579,5.157,5.157,0,0,1,.382,2.023V79.8a5.249,5.249,0,0,1-.392,2.033,4.634,4.634,0,0,1-1.125,1.61A5.248,5.248,0,0,1,50.526,84.5a7.183,7.183,0,0,1-2.436.382H44.24ZM48.193,82.4a3,3,0,0,0,2.033-.661,2.364,2.364,0,0,0,.774-1.9v-.031a2.385,2.385,0,0,0-.774-1.889,3,3,0,0,0-2.033-.671H47.048V82.4Z" transform="translate(-9.744 -74.554)" fill="#fff"/>
      <path id="Trazado_2805" data-name="Trazado 2805" d="M55.01,74.76h8.134v2.384H57.776v1.538h4.862v2.209H57.776V82.5h5.44v2.384H55.01V74.76Z" transform="translate(-9.397 -74.554)" fill="#fff"/>
      <path id="Trazado_2806" data-name="Trazado 2806" d="M64.41,74.76h2.962l2.415,3.922L72.2,74.76h2.962V84.886H72.379V79.075L69.8,83.038h-.062l-2.57-3.933V84.9H64.4V74.77Z" transform="translate(-9.094 -74.554)" fill="#fff"/>
      <path id="Trazado_2807" data-name="Trazado 2807" d="M79.57,81.1,75.72,74.76h3.2L81,78.445l2.1-3.685h3.138l-3.85,6.3v3.829H79.57V81.1Z" transform="translate(-8.73 -74.554)" fill="#fff"/>
    </g>
    <path id="Trazado_2808" data-name="Trazado 2808" d="M29.73,49.61h5.925L49.074,19.821,62.43,49.61h5.935L51.54,12.11H46.607Z" transform="translate(0.957 0.39)" fill="#fff"/>
    <path id="Trazado_2809" data-name="Trazado 2809" d="M68.078,34.528c-.372.217-9.238,5.233-19.178,5.233-8.929,0-18.507-4.975-18.91-5.182l2.519-4.789c.083.041,8.825,4.573,16.391,4.573,8.464,0,16.4-4.469,16.484-4.521l2.684,4.7Z" transform="translate(0.966 0.959)" fill="#00b6c5"/>
    <g id="Grupo_1985" data-name="Grupo 1985" transform="translate(12.985 62.531)">
      <path id="Trazado_2810" data-name="Trazado 2810" d="M12.58,60.58h1.992v9.063H12.58Z" transform="translate(-12.58 -60.58)" fill="#00b6c5"/>
      <path id="Trazado_2811" data-name="Trazado 2811" d="M24.66,60.58H26.5l4.242,5.584V60.58h1.972v9.063H31.018l-4.387-5.76v5.76H24.66V60.58Z" transform="translate(-12.191 -60.58)" fill="#00b6c5"/>
      <path id="Trazado_2812" data-name="Trazado 2812" d="M42.52,60.58h3.53A5.416,5.416,0,0,1,48,60.921a4.608,4.608,0,0,1,1.528.95,4.357,4.357,0,0,1,.991,1.435,4.446,4.446,0,0,1,.351,1.786v.021A4.446,4.446,0,0,1,50.52,66.9a4.252,4.252,0,0,1-.991,1.435,4.806,4.806,0,0,1-1.528.96,5.167,5.167,0,0,1-1.951.351H42.52V60.58Zm3.53,7.267a3.014,3.014,0,0,0,1.115-.2,2.464,2.464,0,0,0,.857-.557,2.564,2.564,0,0,0,.557-.857,2.885,2.885,0,0,0,.2-1.1V65.1a3,3,0,0,0-.2-1.1,2.508,2.508,0,0,0-.557-.867,2.589,2.589,0,0,0-.857-.568,3.014,3.014,0,0,0-1.115-.2H44.512v5.46H46.05Z" transform="translate(-11.616 -60.58)" fill="#00b6c5"/>
      <path id="Trazado_2813" data-name="Trazado 2813" d="M60.28,60.58H67.1v1.775H62.252v1.837h4.273v1.775H62.252v1.9h4.924v1.775H60.29V60.58Z" transform="translate(-11.044 -60.58)" fill="#00b6c5"/>
      <path id="Trazado_2814" data-name="Trazado 2814" d="M79.139,65.039,76.1,60.58h2.333l1.9,2.942,1.92-2.942h2.271l-3.035,4.428,3.159,4.635H82.318l-2.033-3.107-2.044,3.107H75.97l3.159-4.614Z" transform="translate(-10.539 -60.58)" fill="#00b6c5"/>
    </g>
  </g>
</svg>
